# xmcd
#
# Track frame offsets: 
#        150
#        12445
#        22309
#        36787
#        57630
#        73483
#        92636
#        105882
#        122029
#        135016
#        146054
#        161402
#        177514
#        190560
#
# Disc length: 2713 seconds
#
# Revision: 0
# Processed by: cddbd v1.5.2PL0 Copyright (c) Steve Scherf et al.
# Submitted via: ExactAudioCopy v1.3
#
DISCID=c10a970e
DTITLE=Erik Darling - Child, Child
DYEAR=2000
DGENRE=Country
TTITLE0=Sunshine Baby
TTITLE1=With A Fie Fie (Old Ben Johnson)
TTITLE2=Jay Gould's Daughter
TTITLE3=Child, Child
TTITLE4=A Place In The Hills
TTITLE5=Black Snake Shakies
TTITLE6=Far Through The Memory Shines The Happy Hour
TTITLE7=Walk Right In Blues
TTITLE8=It Doesn't Matter At All If It Rains On Me
TTITLE9=Cotton-Eyed Joe
TTITLE10=Sail Away Odyssey
TTITLE11=God Knows She Ain't No Angel
TTITLE12=Tradewinds
TTITLE13=The Banana Boat Song
EXTD=
EXTT0=
EXTT1=
EXTT2=
EXTT3=
EXTT4=
EXTT5=
EXTT6=
EXTT7=
EXTT8=
EXTT9=
EXTT10=
EXTT11=
EXTT12=
EXTT13=
PLAYORDER=
